<svg width="110" height="110" viewBox="0 0 110 110" fill="none" xmlns="http://www.w3.org/2000/svg">
<path d="M15.222 13L4.1002 36.123L4 39H27.5V37L54 15L80.5 37V39H95.8802H106L105.9 36.123L94.778 13H15.222Z" fill="#024B54" stroke="#024B54" stroke-width="3" stroke-miterlimit="10" stroke-linecap="round" stroke-linejoin="round"/>
<path d="M27.5 46.6V36.5L54.1 14.3L80.7 36.1V46.6" stroke="#024B54" stroke-width="3" stroke-miterlimit="10" stroke-linecap="round" stroke-linejoin="round"/>
<path d="M4 98.5H104" stroke="#024B54" stroke-width="3" stroke-miterlimit="10" stroke-linecap="round" stroke-linejoin="round"/>
<path d="M7.5 37.5V90.5H102.5V37.5" stroke="#024B54" stroke-width="3" stroke-linecap="round" stroke-linejoin="round" stroke-dasharray="5 8"/>
<path d="M51.3213 68.5918C51.3486 66.9648 51.5332 65.6797 51.875 64.7363C52.2168 63.793 52.9141 62.7471 53.9668 61.5986L56.6533 58.8301C57.8018 57.5312 58.376 56.1367 58.376 54.6465C58.376 53.2109 58 52.0898 57.248 51.2832C56.4961 50.4629 55.4023 50.0527 53.9668 50.0527C52.5723 50.0527 51.4512 50.4219 50.6035 51.1602C49.7559 51.8984 49.332 52.8896 49.332 54.1338H45.5381C45.5654 51.9189 46.3516 50.1348 47.8965 48.7812C49.4551 47.4141 51.4785 46.7305 53.9668 46.7305C56.5508 46.7305 58.5605 47.4277 59.9961 48.8223C61.4453 50.2031 62.1699 52.1035 62.1699 54.5234C62.1699 56.916 61.0625 59.2744 58.8477 61.5986L56.6123 63.8135C55.6143 64.9209 55.1152 66.5137 55.1152 68.5918H51.3213ZM51.1572 75.0928C51.1572 74.4775 51.3418 73.9648 51.7109 73.5547C52.0938 73.1309 52.6543 72.9189 53.3926 72.9189C54.1309 72.9189 54.6914 73.1309 55.0742 73.5547C55.457 73.9648 55.6484 74.4775 55.6484 75.0928C55.6484 75.708 55.457 76.2207 55.0742 76.6309C54.6914 77.0273 54.1309 77.2256 53.3926 77.2256C52.6543 77.2256 52.0938 77.0273 51.7109 76.6309C51.3418 76.2207 51.1572 75.708 51.1572 75.0928Z" fill="#024B54"/>
</svg>
