<svg width="110" height="110" viewBox="0 0 110 110" fill="none" xmlns="http://www.w3.org/2000/svg">
<g clip-path="url(#clip0)">
<path d="M94.4 33.2998H15.5V96.9998H94.4V33.2998Z" stroke="#024B54" stroke-width="3" stroke-miterlimit="10" stroke-linecap="round" stroke-linejoin="round"/>
<path d="M94.4 19.0996H15.5V33.2996H94.4V19.0996Z" fill="#024B54" stroke="#024B54" stroke-width="3" stroke-miterlimit="10" stroke-linecap="round" stroke-linejoin="round"/>
<path d="M24.3 29.9004C26.233 29.9004 27.8 28.3334 27.8 26.4004C27.8 24.4674 26.233 22.9004 24.3 22.9004C22.367 22.9004 20.8 24.4674 20.8 26.4004C20.8 28.3334 22.367 29.9004 24.3 29.9004Z" fill="white"/>
<path d="M85.4 29.9004C87.333 29.9004 88.9 28.3334 88.9 26.4004C88.9 24.4674 87.333 22.9004 85.4 22.9004C83.467 22.9004 81.9 24.4674 81.9 26.4004C81.9 28.3334 83.467 29.9004 85.4 29.9004Z" fill="white"/>
<path d="M85.5 13.5V26.4" stroke="#024B54" stroke-width="3" stroke-miterlimit="10" stroke-linecap="round" stroke-linejoin="round"/>
<path d="M24.3 13.5V26.4" stroke="#024B54" stroke-width="3" stroke-miterlimit="10" stroke-linecap="round" stroke-linejoin="round"/>
<path d="M35.922 70.0931C35.0243 70.0874 34.1578 69.9369 33.3226 69.6414C32.4931 69.346 31.7488 68.8659 31.0897 68.2011C30.4363 67.5363 29.9164 66.6556 29.53 65.559C29.1493 64.4624 28.9561 63.1159 28.9505 61.5193C28.9561 60.042 29.1238 58.721 29.4533 57.5562C29.7885 56.3914 30.2658 55.4056 30.8851 54.5988C31.5101 53.7863 32.2573 53.1698 33.1266 52.7494C33.9959 52.3232 34.9703 52.1102 36.0499 52.1102C37.2147 52.1102 38.2431 52.3374 39.1351 52.792C40.0272 53.2465 40.7431 53.863 41.2828 54.6414C41.8283 55.4198 42.1578 56.2977 42.2715 57.2749H38.6323C38.4902 56.6386 38.1919 56.1471 37.7374 55.8005C37.2828 55.4482 36.7203 55.2721 36.0499 55.2721C34.9135 55.2721 34.0499 55.7693 33.459 56.7636C32.8738 57.7522 32.5755 59.1102 32.5641 60.8374H32.6834C32.9448 60.3204 33.297 59.8801 33.7402 59.5164C34.1891 59.1471 34.6976 58.8659 35.2658 58.6727C35.8397 58.4738 36.4448 58.3744 37.0811 58.3744C38.1152 58.3744 39.0357 58.6187 39.8425 59.1073C40.6493 59.5903 41.2857 60.2551 41.7516 61.1017C42.2175 61.9482 42.4505 62.917 42.4505 64.0079C42.4505 65.1897 42.1749 66.2409 41.6238 67.1613C41.0783 68.0818 40.3141 68.8034 39.3311 69.3261C38.3539 69.8431 37.2175 70.0988 35.922 70.0931ZM35.905 67.1954C36.4732 67.1954 36.9817 67.059 37.4306 66.7863C37.8794 66.5136 38.2317 66.1443 38.4874 65.6784C38.7431 65.2124 38.8709 64.6897 38.8709 64.1102C38.8709 63.5306 38.7431 63.0107 38.4874 62.5505C38.2374 62.0903 37.8908 61.7238 37.4476 61.4511C37.0044 61.1784 36.4988 61.042 35.9306 61.042C35.5044 61.042 35.1095 61.1215 34.7459 61.2806C34.388 61.4397 34.0726 61.6613 33.7999 61.9454C33.5328 62.2295 33.3226 62.559 33.1692 62.934C33.0158 63.3034 32.9391 63.6982 32.9391 64.1187C32.9391 64.6812 33.0669 65.1954 33.3226 65.6613C33.584 66.1272 33.9363 66.4994 34.3794 66.7778C34.8283 67.0562 35.3368 67.1954 35.905 67.1954ZM53.2573 59.6869V62.5676H45.297V59.6869H53.2573ZM63.9107 52.3999V69.8545H60.2203V55.9028H60.1181L56.1209 58.4085V55.1357L60.4419 52.3999H63.9107ZM68.0591 69.8545V67.1954L74.2722 61.4426C74.8006 60.9312 75.2438 60.471 75.6017 60.0619C75.9654 59.6528 76.2409 59.2522 76.4284 58.8602C76.6159 58.4624 76.7097 58.0335 76.7097 57.5732C76.7097 57.0619 76.5932 56.6215 76.3603 56.2522C76.1273 55.8772 75.8091 55.5903 75.4057 55.3914C75.0023 55.1869 74.5449 55.0846 74.0336 55.0846C73.4995 55.0846 73.0336 55.1926 72.6358 55.4085C72.2381 55.6244 71.9313 55.934 71.7154 56.3374C71.4995 56.7409 71.3915 57.221 71.3915 57.7778H67.8887C67.8887 56.6357 68.1472 55.6443 68.6642 54.8034C69.1813 53.9624 69.9057 53.3119 70.8375 52.8517C71.7693 52.3914 72.8432 52.1613 74.0591 52.1613C75.3091 52.1613 76.3972 52.3829 77.3233 52.8261C78.2551 53.2636 78.9796 53.8715 79.4966 54.6499C80.0137 55.4284 80.2722 56.3204 80.2722 57.3261C80.2722 57.9852 80.1415 58.6357 79.8801 59.2778C79.6245 59.9198 79.1671 60.6329 78.508 61.417C77.8489 62.1954 76.9199 63.1301 75.7211 64.221L73.1728 66.7181V66.8374H80.5023V69.8545H68.0591Z" fill="#024B54"/>
</g>
<defs>
<clipPath id="clip0">
<rect width="81.9" height="86.6" fill="white" transform="translate(14 12)"/>
</clipPath>
</defs>
</svg>
