<svg width="110" height="110" viewBox="0 0 110 110" fill="none" xmlns="http://www.w3.org/2000/svg">
<g clip-path="url(#clip0)">
<path d="M94.4 33.2998H15.5V96.9998H94.4V33.2998Z" stroke="#024B54" stroke-width="3" stroke-miterlimit="10" stroke-linecap="round" stroke-linejoin="round"/>
<path d="M94.4 19.0996H15.5V33.2996H94.4V19.0996Z" fill="#024B54" stroke="#024B54" stroke-width="3" stroke-miterlimit="10" stroke-linecap="round" stroke-linejoin="round"/>
<path d="M24.3 29.9004C26.233 29.9004 27.8 28.3334 27.8 26.4004C27.8 24.4674 26.233 22.9004 24.3 22.9004C22.367 22.9004 20.8 24.4674 20.8 26.4004C20.8 28.3334 22.367 29.9004 24.3 29.9004Z" fill="white"/>
<path d="M85.4 29.9004C87.333 29.9004 88.9 28.3334 88.9 26.4004C88.9 24.4674 87.333 22.9004 85.4 22.9004C83.467 22.9004 81.9 24.4674 81.9 26.4004C81.9 28.3334 83.467 29.9004 85.4 29.9004Z" fill="white"/>
<path d="M85.5 13.5V26.4" stroke="#024B54" stroke-width="3" stroke-miterlimit="10" stroke-linecap="round" stroke-linejoin="round"/>
<path d="M24.3 13.5V26.4" stroke="#024B54" stroke-width="3" stroke-miterlimit="10" stroke-linecap="round" stroke-linejoin="round"/>
<path d="M48.8893 52.3999L48.557 64.6215H45.4376L45.0967 52.3999H48.8893ZM46.9973 70.0761C46.4348 70.0761 45.9518 69.8772 45.5484 69.4795C45.145 69.0761 44.9462 68.5931 44.9518 68.0306C44.9462 67.4738 45.145 66.9965 45.5484 66.5988C45.9518 66.2011 46.4348 66.0022 46.9973 66.0022C47.5371 66.0022 48.0115 66.2011 48.4206 66.5988C48.8297 66.9965 49.0371 67.4738 49.0428 68.0306C49.0371 68.4056 48.9376 68.7494 48.7445 69.0619C48.557 69.3687 48.3098 69.6159 48.003 69.8034C47.6962 69.9852 47.3609 70.0761 46.9973 70.0761ZM56.6706 52.3999L56.3382 64.6215H53.2189L52.878 52.3999H56.6706ZM54.7786 70.0761C54.2161 70.0761 53.7331 69.8772 53.3297 69.4795C52.9263 69.0761 52.7274 68.5931 52.7331 68.0306C52.7274 67.4738 52.9263 66.9965 53.3297 66.5988C53.7331 66.2011 54.2161 66.0022 54.7786 66.0022C55.3183 66.0022 55.7928 66.2011 56.2018 66.5988C56.6109 66.9965 56.8183 67.4738 56.824 68.0306C56.8183 68.4056 56.7189 68.7494 56.5257 69.0619C56.3382 69.3687 56.0911 69.6159 55.7842 69.8034C55.4774 69.9852 55.1422 70.0761 54.7786 70.0761ZM64.4518 52.3999L64.1195 64.6215H61.0001L60.6592 52.3999H64.4518ZM62.5598 70.0761C61.9973 70.0761 61.5143 69.8772 61.1109 69.4795C60.7075 69.0761 60.5087 68.5931 60.5143 68.0306C60.5087 67.4738 60.7075 66.9965 61.1109 66.5988C61.5143 66.2011 61.9973 66.0022 62.5598 66.0022C63.0996 66.0022 63.574 66.2011 63.9831 66.5988C64.3922 66.9965 64.5996 67.4738 64.6053 68.0306C64.5996 68.4056 64.5001 68.7494 64.307 69.0619C64.1195 69.3687 63.8723 69.6159 63.5655 69.8034C63.2587 69.9852 62.9234 70.0761 62.5598 70.0761Z" fill="#024B54"/>
</g>
<defs>
<clipPath id="clip0">
<rect width="81.9" height="86.6" fill="white" transform="translate(14 12)"/>
</clipPath>
</defs>
</svg>
