<svg width="110" height="110" viewBox="0 0 110 110" fill="none" xmlns="http://www.w3.org/2000/svg">
<g clip-path="url(#clip0)">
<path d="M94.4 33.2998H15.5V96.9998H94.4V33.2998Z" stroke="#024B54" stroke-width="3" stroke-miterlimit="10" stroke-linecap="round" stroke-linejoin="round"/>
<path d="M94.4 19.0996H15.5V33.2996H94.4V19.0996Z" fill="#024B54" stroke="#024B54" stroke-width="3" stroke-miterlimit="10" stroke-linecap="round" stroke-linejoin="round"/>
<path d="M24.3 29.9004C26.233 29.9004 27.8 28.3334 27.8 26.4004C27.8 24.4674 26.233 22.9004 24.3 22.9004C22.367 22.9004 20.8 24.4674 20.8 26.4004C20.8 28.3334 22.367 29.9004 24.3 29.9004Z" fill="white"/>
<path d="M85.4 29.9004C87.333 29.9004 88.9 28.3334 88.9 26.4004C88.9 24.4674 87.333 22.9004 85.4 22.9004C83.467 22.9004 81.9 24.4674 81.9 26.4004C81.9 28.3334 83.467 29.9004 85.4 29.9004Z" fill="white"/>
<path d="M85.5 13.5V26.4" stroke="#024B54" stroke-width="3" stroke-miterlimit="10" stroke-linecap="round" stroke-linejoin="round"/>
<path d="M24.3 13.5V26.4" stroke="#024B54" stroke-width="3" stroke-miterlimit="10" stroke-linecap="round" stroke-linejoin="round"/>
<path d="M42.2073 52.3999V69.8545H38.517V55.9028H38.4147L34.4175 58.4085V55.1357L38.7386 52.3999H42.2073ZM46.3558 69.8545V67.1954L52.5688 61.4426C53.0972 60.9312 53.5404 60.471 53.8984 60.0619C54.262 59.6528 54.5376 59.2522 54.7251 58.8602C54.9126 58.4624 55.0063 58.0335 55.0063 57.5732C55.0063 57.0619 54.8898 56.6215 54.6569 56.2522C54.4239 55.8772 54.1058 55.5903 53.7023 55.3914C53.2989 55.1869 52.8415 55.0846 52.3302 55.0846C51.7961 55.0846 51.3302 55.1926 50.9325 55.4085C50.5347 55.6244 50.2279 55.934 50.012 56.3374C49.7961 56.7409 49.6881 57.221 49.6881 57.7778H46.1853C46.1853 56.6357 46.4438 55.6443 46.9609 54.8034C47.4779 53.9624 48.2023 53.3119 49.1342 52.8517C50.066 52.3914 51.1398 52.1613 52.3558 52.1613C53.6058 52.1613 54.6938 52.3829 55.62 52.8261C56.5518 53.2636 57.2762 53.8715 57.7933 54.6499C58.3103 55.4284 58.5688 56.3204 58.5688 57.3261C58.5688 57.9852 58.4381 58.6357 58.1768 59.2778C57.9211 59.9198 57.4637 60.6329 56.8046 61.417C56.1455 62.1954 55.2165 63.1301 54.0177 64.221L51.4694 66.7181V66.8374H58.7989V69.8545H46.3558ZM66.6888 67.1954V55.1272H69.74V67.1954H66.6888ZM62.1803 62.6869V59.6357H74.2485V62.6869H62.1803Z" fill="#024B54"/>
</g>
<defs>
<clipPath id="clip0">
<rect width="81.9" height="86.6" fill="white" transform="translate(14 12)"/>
</clipPath>
</defs>
</svg>
