<svg width="110" height="110" viewBox="0 0 110 110" fill="none" xmlns="http://www.w3.org/2000/svg">
<g clip-path="url(#clip0)">
<path d="M94.4 33.2998H15.5V96.9998H94.4V33.2998Z" stroke="#024B54" stroke-width="3" stroke-miterlimit="10" stroke-linecap="round" stroke-linejoin="round"/>
<path d="M94.4 19.0996H15.5V33.2996H94.4V19.0996Z" fill="#024B54" stroke="#024B54" stroke-width="3" stroke-miterlimit="10" stroke-linecap="round" stroke-linejoin="round"/>
<path d="M24.3 29.9004C26.233 29.9004 27.8 28.3334 27.8 26.4004C27.8 24.4674 26.233 22.9004 24.3 22.9004C22.367 22.9004 20.8 24.4674 20.8 26.4004C20.8 28.3334 22.367 29.9004 24.3 29.9004Z" fill="white"/>
<path d="M85.4 29.9004C87.333 29.9004 88.9 28.3334 88.9 26.4004C88.9 24.4674 87.333 22.9004 85.4 22.9004C83.467 22.9004 81.9 24.4674 81.9 26.4004C81.9 28.3334 83.467 29.9004 85.4 29.9004Z" fill="white"/>
<path d="M85.5 13.5V26.4" stroke="#024B54" stroke-width="3" stroke-miterlimit="10" stroke-linecap="round" stroke-linejoin="round"/>
<path d="M24.3 13.5V26.4" stroke="#024B54" stroke-width="3" stroke-miterlimit="10" stroke-linecap="round" stroke-linejoin="round"/>
<path d="M44.3852 52.3999V69.8545H40.6949V55.9028H40.5926L36.5955 58.4085V55.1357L40.9165 52.3999H44.3852ZM56.724 59.6869V62.5676H48.7638V59.6869H56.724ZM66.4825 70.0931C65.5848 70.0874 64.7183 69.9369 63.8831 69.6414C63.0536 69.346 62.3092 68.8659 61.6501 68.2011C60.9967 67.5363 60.4769 66.6556 60.0905 65.559C59.7098 64.4624 59.5166 63.1159 59.5109 61.5193C59.5166 60.042 59.6842 58.721 60.0138 57.5562C60.349 56.3914 60.8263 55.4056 61.4456 54.5988C62.0706 53.7863 62.8178 53.1698 63.6871 52.7494C64.5564 52.3232 65.5308 52.1102 66.6104 52.1102C67.7751 52.1102 68.8036 52.3374 69.6956 52.792C70.5876 53.2465 71.3036 53.863 71.8433 54.6414C72.3888 55.4198 72.7183 56.2977 72.832 57.2749H69.1928C69.0507 56.6386 68.7524 56.1471 68.2979 55.8005C67.8433 55.4482 67.2808 55.2721 66.6104 55.2721C65.474 55.2721 64.6104 55.7693 64.0195 56.7636C63.4342 57.7522 63.1359 59.1102 63.1246 60.8374H63.2439C63.5053 60.3204 63.8575 59.8801 64.3007 59.5164C64.7496 59.1471 65.2581 58.8659 65.8263 58.6727C66.4001 58.4738 67.0053 58.3744 67.6416 58.3744C68.6757 58.3744 69.5962 58.6187 70.403 59.1073C71.2098 59.5903 71.8462 60.2551 72.3121 61.1017C72.778 61.9482 73.0109 62.917 73.0109 64.0079C73.0109 65.1897 72.7354 66.2409 72.1842 67.1613C71.6388 68.0818 70.8746 68.8034 69.8916 69.3261C68.9144 69.8431 67.778 70.0988 66.4825 70.0931ZM66.4655 67.1954C67.0337 67.1954 67.5422 67.059 67.9911 66.7863C68.4399 66.5136 68.7922 66.1443 69.0479 65.6784C69.3036 65.2124 69.4314 64.6897 69.4314 64.1102C69.4314 63.5306 69.3036 63.0107 69.0479 62.5505C68.7979 62.0903 68.4513 61.7238 68.0081 61.4511C67.5649 61.1784 67.0592 61.042 66.4911 61.042C66.0649 61.042 65.67 61.1215 65.3064 61.2806C64.9484 61.4397 64.6331 61.6613 64.3604 61.9454C64.0933 62.2295 63.8831 62.559 63.7297 62.934C63.5763 63.3034 63.4996 63.6982 63.4996 64.1187C63.4996 64.6812 63.6274 65.1954 63.8831 65.6613C64.1445 66.1272 64.4967 66.4994 64.9399 66.7778C65.3888 67.0562 65.8973 67.1954 66.4655 67.1954Z" fill="#024B54"/>
</g>
<defs>
<clipPath id="clip0">
<rect width="81.9" height="86.6" fill="white" transform="translate(14 12)"/>
</clipPath>
</defs>
</svg>
