<svg width="110" height="110" viewBox="0 0 110 110" fill="none" xmlns="http://www.w3.org/2000/svg">
<g clip-path="url(#clip0)">
<path d="M94.4 33.2998H15.5V96.9998H94.4V33.2998Z" stroke="#024B54" stroke-width="3" stroke-miterlimit="10" stroke-linecap="round" stroke-linejoin="round"/>
<path d="M94.4 19.0996H15.5V33.2996H94.4V19.0996Z" fill="#024B54" stroke="#024B54" stroke-width="3" stroke-miterlimit="10" stroke-linecap="round" stroke-linejoin="round"/>
<path d="M24.3 29.9004C26.233 29.9004 27.8 28.3334 27.8 26.4004C27.8 24.4674 26.233 22.9004 24.3 22.9004C22.367 22.9004 20.8 24.4674 20.8 26.4004C20.8 28.3334 22.367 29.9004 24.3 29.9004Z" fill="white"/>
<path d="M85.4 29.9004C87.333 29.9004 88.9 28.3334 88.9 26.4004C88.9 24.4674 87.333 22.9004 85.4 22.9004C83.467 22.9004 81.9 24.4674 81.9 26.4004C81.9 28.3334 83.467 29.9004 85.4 29.9004Z" fill="white"/>
<path d="M85.5 13.5V26.4" stroke="#024B54" stroke-width="3" stroke-miterlimit="10" stroke-linecap="round" stroke-linejoin="round"/>
<path d="M24.3 13.5V26.4" stroke="#024B54" stroke-width="3" stroke-miterlimit="10" stroke-linecap="round" stroke-linejoin="round"/>
<path d="M52.605 64.6215V64.3318C52.6107 63.3374 52.6987 62.5448 52.8692 61.9539C53.0453 61.363 53.301 60.8857 53.6362 60.5221C53.9715 60.1585 54.3749 59.8289 54.8465 59.5335C55.1987 59.3062 55.5141 59.0704 55.7925 58.8261C56.0709 58.5818 56.2925 58.3119 56.4573 58.0164C56.622 57.7153 56.7044 57.3801 56.7044 57.0107C56.7044 56.6187 56.6107 56.2749 56.4232 55.9795C56.2357 55.684 55.9828 55.4568 55.6646 55.2977C55.3521 55.1386 55.0056 55.059 54.6249 55.059C54.2556 55.059 53.9061 55.1414 53.5766 55.3062C53.247 55.4653 52.9771 55.7039 52.7669 56.0221C52.5567 56.3346 52.4431 56.7238 52.426 57.1897H48.9487C48.9771 56.0534 49.2499 55.1159 49.7669 54.3772C50.284 53.6329 50.9686 53.0789 51.8209 52.7153C52.6732 52.346 53.6135 52.1613 54.6419 52.1613C55.7726 52.1613 56.7726 52.3488 57.6419 52.7238C58.5112 53.0931 59.1931 53.6301 59.6874 54.3346C60.1817 55.0392 60.4289 55.8886 60.4289 56.8829C60.4289 57.5477 60.3181 58.1386 60.0965 58.6556C59.8806 59.167 59.5766 59.6215 59.1845 60.0193C58.7925 60.4113 58.3294 60.7664 57.7953 61.0846C57.3465 61.3517 56.9771 61.6301 56.6874 61.9198C56.4033 62.2096 56.1902 62.5448 56.0482 62.9255C55.9118 63.3062 55.8408 63.7749 55.8351 64.3318V64.6215H52.605ZM54.2925 70.0761C53.7243 70.0761 53.2385 69.8772 52.8351 69.4795C52.4374 69.0761 52.2413 68.5931 52.247 68.0306C52.2413 67.4738 52.4374 66.9965 52.8351 66.5988C53.2385 66.2011 53.7243 66.0022 54.2925 66.0022C54.8323 66.0022 55.3067 66.2011 55.7158 66.5988C56.1249 66.9965 56.3323 67.4738 56.3379 68.0306C56.3323 68.4056 56.2328 68.7494 56.0396 69.0619C55.8521 69.3687 55.605 69.6159 55.2982 69.8034C54.9913 69.9852 54.6561 70.0761 54.2925 70.0761Z" fill="#024B54"/>
</g>
<defs>
<clipPath id="clip0">
<rect width="81.9" height="86.6" fill="white" transform="translate(14 12)"/>
</clipPath>
</defs>
</svg>
