<svg width="110" height="110" viewBox="0 0 110 110" fill="none" xmlns="http://www.w3.org/2000/svg">
<g clip-path="url(#clip0)">
<path d="M94.4 33.2998H15.5V96.9998H94.4V33.2998Z" stroke="#024B54" stroke-width="3" stroke-miterlimit="10" stroke-linecap="round" stroke-linejoin="round"/>
<path d="M94.4 19.0996H15.5V33.2996H94.4V19.0996Z" fill="#024B54" stroke="#024B54" stroke-width="3" stroke-miterlimit="10" stroke-linecap="round" stroke-linejoin="round"/>
<path d="M24.3 29.9004C26.233 29.9004 27.8 28.3334 27.8 26.4004C27.8 24.4674 26.233 22.9004 24.3 22.9004C22.367 22.9004 20.8 24.4674 20.8 26.4004C20.8 28.3334 22.367 29.9004 24.3 29.9004Z" fill="white"/>
<path d="M85.4 29.9004C87.333 29.9004 88.9 28.3334 88.9 26.4004C88.9 24.4674 87.333 22.9004 85.4 22.9004C83.467 22.9004 81.9 24.4674 81.9 26.4004C81.9 28.3334 83.467 29.9004 85.4 29.9004Z" fill="white"/>
<path d="M85.5 13.5V26.4" stroke="#024B54" stroke-width="3" stroke-miterlimit="10" stroke-linecap="round" stroke-linejoin="round"/>
<path d="M24.3 13.5V26.4" stroke="#024B54" stroke-width="3" stroke-miterlimit="10" stroke-linecap="round" stroke-linejoin="round"/>
<path d="M42.0795 70.0761C41.517 70.0761 41.0341 69.8772 40.6306 69.4795C40.2329 69.0761 40.0341 68.5931 40.0341 68.0306C40.0341 67.4738 40.2329 66.9965 40.6306 66.5988C41.0341 66.2011 41.517 66.0022 42.0795 66.0022C42.625 66.0022 43.1022 66.2011 43.5113 66.5988C43.9204 66.9965 44.125 67.4738 44.125 68.0306C44.125 68.4056 44.0284 68.7494 43.8352 69.0619C43.6477 69.3687 43.4005 69.6159 43.0937 69.8034C42.7869 69.9852 42.4488 70.0761 42.0795 70.0761ZM53.9623 70.0761C53.3998 70.0761 52.9169 69.8772 52.5135 69.4795C52.1157 69.0761 51.9169 68.5931 51.9169 68.0306C51.9169 67.4738 52.1157 66.9965 52.5135 66.5988C52.9169 66.2011 53.3998 66.0022 53.9623 66.0022C54.5078 66.0022 54.985 66.2011 55.3941 66.5988C55.8032 66.9965 56.0078 67.4738 56.0078 68.0306C56.0078 68.4056 55.9112 68.7494 55.718 69.0619C55.5305 69.3687 55.2833 69.6159 54.9765 69.8034C54.6697 69.9852 54.3316 70.0761 53.9623 70.0761ZM65.8451 70.0761C65.2826 70.0761 64.7997 69.8772 64.3963 69.4795C63.9985 69.0761 63.7997 68.5931 63.7997 68.0306C63.7997 67.4738 63.9985 66.9965 64.3963 66.5988C64.7997 66.2011 65.2826 66.0022 65.8451 66.0022C66.3906 66.0022 66.8679 66.2011 67.277 66.5988C67.686 66.9965 67.8906 67.4738 67.8906 68.0306C67.8906 68.4056 67.794 68.7494 67.6008 69.0619C67.4133 69.3687 67.1662 69.6159 66.8593 69.8034C66.5525 69.9852 66.2144 70.0761 65.8451 70.0761Z" fill="#024B54"/>
</g>
<defs>
<clipPath id="clip0">
<rect width="81.9" height="86.6" fill="white" transform="translate(14 12)"/>
</clipPath>
</defs>
</svg>
