<svg id="Layer_1" data-name="Layer 1" xmlns="http://www.w3.org/2000/svg" width="110" height="110" viewBox="0 0 110 110">
  <path d="M55,38.36105V55H39.29344A13.84184,13.84184,0,0,0,25.49217,41.19873h0V55H9.80851v-16.639" fill="none" stroke="#024b54" stroke-linecap="round" stroke-linejoin="round" stroke-width="3"/>
  <path d="M70.80851,55v9.93283h0A13.84184,13.84184,0,0,0,57.00723,78.73411v0H70.80851v4.24459" fill="none" stroke="#024b54" stroke-linecap="round" stroke-linejoin="round" stroke-width="3"/>
  <polyline points="39.287 9.809 55 9.809 55 24.595" fill="none" stroke="#024b54" stroke-linecap="round" stroke-linejoin="round" stroke-width="3"/>
  <polyline points="9.809 24.595 9.809 9.809 25.521 9.809" fill="none" stroke="#024b54" stroke-linecap="round" stroke-linejoin="round" stroke-width="3"/>
  <line x1="9.80851" y1="72.94681" x2="9.80851" y2="38.36105" fill="none" stroke="#024b54" stroke-linecap="round" stroke-linejoin="round" stroke-width="3"/>
  <polyline points="25.521 100.191 9.809 100.191 9.809 86.713" fill="none" stroke="#024b54" stroke-linecap="round" stroke-linejoin="round" stroke-width="3"/>
  <polyline points="100.191 86.569 100.191 100.191 39.287 100.191" fill="none" stroke="#024b54" stroke-linecap="round" stroke-linejoin="round" stroke-width="3"/>
  <path d="M39.28724,9.80851H70.6951A13.84184,13.84184,0,0,0,84.49637,23.60978h0V9.80852h15.69509v63.1383" fill="none" stroke="#024b54" stroke-linecap="round" stroke-linejoin="round" stroke-width="3"/>
  <line x1="70.80851" y1="82.97872" x2="70.80851" y2="100.19149" fill="none" stroke="#024b54" stroke-linecap="round" stroke-linejoin="round" stroke-width="3"/>
  <line x1="55.00001" y1="55.00001" x2="100.19149" y2="55.00001" fill="none" stroke="#024b54" stroke-linecap="round" stroke-linejoin="round" stroke-width="3"/>
  <path d="M33.43262,27.56152v9.79981H31.16406v-7.98h-1.96V27.56152Z" fill="#024b54"/>
  <path d="M38.626,79.92773H37.03027v2.0586H34.81836v-2.0586H29.54V78.40234l4.62012-6.21582H36.54l-4.2832,5.89356h2.63183v-1.834h2.1416v1.834H38.626Z" fill="#024b54"/>
  <path d="M87.96973,77.13477a2.64338,2.64338,0,0,1,.68652,1.85546,2.92638,2.92638,0,0,1-.44824,1.5752,3.12064,3.12064,0,0,1-1.36524,1.1543,5.23289,5.23289,0,0,1-2.24707.43457,7.68837,7.68837,0,0,1-2.03711-.27344,5.23069,5.23069,0,0,1-1.70019-.77637l.88183-1.73633a4.26782,4.26782,0,0,0,1.29493.65137A5.0103,5.0103,0,0,0,84.54,80.25a2.38044,2.38044,0,0,0,1.34375-.3291,1.05488,1.05488,0,0,0,.49023-.93067q0-1.20409-1.834-1.2041H83.50391v-1.498l2.0166-2.28223H81.34766V72.18652H88.208v1.46973l-2.21192,2.51953A3.30278,3.30278,0,0,1,87.96973,77.13477Z" fill="#024b54"/>
  <path d="M81.99609,35.51318v1.84815H74.58984V35.89111l3.78028-3.56982a3.994,3.994,0,0,0,.81152-.98682,1.78787,1.78787,0,0,0,.21-.81933,1.08364,1.08364,0,0,0-.39844-.90284,1.85918,1.85918,0,0,0-1.16894-.31494,2.67853,2.67853,0,0,0-1.16211.24512,2.22115,2.22115,0,0,0-.86816.73486l-1.65235-1.064a3.87542,3.87542,0,0,1,1.582-1.33692,5.28145,5.28145,0,0,1,2.31055-.48291,4.7464,4.7464,0,0,1,1.91113.35694,2.944,2.944,0,0,1,1.27344,1.00781,2.60542,2.60542,0,0,1,.45508,1.5332,3.4238,3.4238,0,0,1-.33594,1.498,5.76128,5.76128,0,0,1-1.30176,1.5957l-2.2539,2.12793Z" fill="#024b54"/>
</svg>
