<svg width="110" height="110" viewBox="0 0 110 110" fill="none" xmlns="http://www.w3.org/2000/svg">
<path d="M63.8297 40.917H98.4312V85.9351H64.0109" stroke="#024B54" stroke-width="3" stroke-miterlimit="10" stroke-linecap="round" stroke-linejoin="round"/>
<path d="M64.0109 18H94.2645L104.319 38.1993L104.5 40.8261H91.6377" stroke="#024B54" stroke-width="3" stroke-miterlimit="10" stroke-linecap="round" stroke-linejoin="round"/>
<path d="M72.1631 48.2539H64.1921V58.2177H72.1631V48.2539Z" stroke="#024B54" stroke-width="3" stroke-miterlimit="10" stroke-linecap="round" stroke-linejoin="round"/>
<path d="M89.3732 48.2539H81.4022V58.2177H89.3732V48.2539Z" stroke="#024B54" stroke-width="3" stroke-miterlimit="10" stroke-linecap="round" stroke-linejoin="round"/>
<path d="M72.1631 65.373H64.1921V75.3368H72.1631V65.373Z" stroke="#024B54" stroke-width="3" stroke-miterlimit="10" stroke-linecap="round" stroke-linejoin="round"/>
<path d="M89.3732 65.373H81.4022V75.3368H89.3732V65.373Z" stroke="#024B54" stroke-width="3" stroke-miterlimit="10" stroke-linecap="round" stroke-linejoin="round"/>
<path d="M49.5181 85.9349V40.9168L32.6703 40.8262L10.3877 40.9168V85.9349H49.337" fill="#024B54"/>
<path d="M49.5181 85.9349V40.9168L32.6703 40.8262L10.3877 40.9168V85.9349H49.337" stroke="#024B54" stroke-width="3" stroke-miterlimit="10" stroke-linecap="round" stroke-linejoin="round"/>
<path d="M4.5 38.1995L14.5543 18.272L49.6993 18.0908V40.8263H4.5V38.1995Z" fill="#024B54" stroke="#024B54" stroke-width="3" stroke-miterlimit="10" stroke-linecap="round" stroke-linejoin="round"/>
<path d="M28.3225 48.2539H20.3514V58.2177H28.3225V48.2539Z" stroke="white" stroke-width="3" stroke-miterlimit="10" stroke-linecap="round" stroke-linejoin="round"/>
<path d="M45.5326 48.2539H37.5616V58.2177H45.5326V48.2539Z" stroke="white" stroke-width="3" stroke-miterlimit="10" stroke-linecap="round" stroke-linejoin="round"/>
<path d="M28.3225 65.373H20.3514V75.3368H28.3225V65.373Z" stroke="white" stroke-width="3" stroke-miterlimit="10" stroke-linecap="round" stroke-linejoin="round"/>
<path d="M45.5326 65.373H37.5616V75.3368H45.5326V65.373Z" stroke="white" stroke-width="3" stroke-miterlimit="10" stroke-linecap="round" stroke-linejoin="round"/>
<path d="M5.59998 98.5H102.6" stroke="#024B54" stroke-width="3" stroke-miterlimit="10" stroke-linecap="round" stroke-linejoin="round"/>
<path d="M57 14L57 92" stroke="#024B54" stroke-width="3" stroke-miterlimit="10" stroke-linecap="round" stroke-linejoin="round"/>
</svg>
