<svg width="110" height="110" viewBox="0 0 110 110" fill="none" xmlns="http://www.w3.org/2000/svg">
<path d="M5 98.9004H105" stroke="#024B54" stroke-width="3" stroke-miterlimit="10" stroke-linecap="round" stroke-linejoin="round"/>
<path d="M102.1 75.6002H8V50.7002H101.7L102.1 75.6002Z" fill="#024B54" stroke="#024B54" stroke-width="3" stroke-miterlimit="10" stroke-linecap="round" stroke-linejoin="round"/>
<path d="M66.6 75.6H8V17.5H66.4L66.6 75.6Z" stroke="#024B54" stroke-width="3" stroke-miterlimit="10" stroke-linecap="round" stroke-linejoin="round"/>
<path d="M85.2 86.3002C91.4408 86.3002 96.5 81.241 96.5 75.0002C96.5 68.7594 91.4408 63.7002 85.2 63.7002C78.9592 63.7002 73.9 68.7594 73.9 75.0002C73.9 81.241 78.9592 86.3002 85.2 86.3002Z" fill="white" stroke="#024B54" stroke-width="3" stroke-miterlimit="10" stroke-linecap="round" stroke-linejoin="round"/>
<path d="M85.2 79.8002C87.851 79.8002 90 77.6512 90 75.0002C90 72.3492 87.851 70.2002 85.2 70.2002C82.5491 70.2002 80.4 72.3492 80.4 75.0002C80.4 77.6512 82.5491 79.8002 85.2 79.8002Z" stroke="#024B54" stroke-width="3" stroke-miterlimit="10" stroke-linecap="round" stroke-linejoin="round"/>
<path d="M94.7 50.7L88.7 30.5H66.8L66.5 50.5C66.5 50.5 95 50.7 94.7 50.7Z" stroke="#024B54" stroke-width="3" stroke-miterlimit="10" stroke-linecap="round" stroke-linejoin="round"/>
<path d="M79.2 31.7998V50.6998" stroke="#024B54" stroke-width="3" stroke-miterlimit="10" stroke-linecap="round" stroke-linejoin="round"/>
<path d="M97.2 67.0998C94.6 63.2998 90.3 60.7998 85.4 60.7998C78.7 60.7998 73.1 65.3998 71.6 71.5998" stroke="white" stroke-width="3" stroke-miterlimit="10" stroke-linecap="round" stroke-linejoin="round"/>
<path d="M25.2 86.3002C31.4408 86.3002 36.5 81.241 36.5 75.0002C36.5 68.7594 31.4408 63.7002 25.2 63.7002C18.9592 63.7002 13.9 68.7594 13.9 75.0002C13.9 81.241 18.9592 86.3002 25.2 86.3002Z" fill="white" stroke="#024B54" stroke-width="3" stroke-miterlimit="10" stroke-linecap="round" stroke-linejoin="round"/>
<path d="M25.2 79.8002C27.851 79.8002 30 77.6512 30 75.0002C30 72.3492 27.851 70.2002 25.2 70.2002C22.5491 70.2002 20.4 72.3492 20.4 75.0002C20.4 77.6512 22.5491 79.8002 25.2 79.8002Z" stroke="#024B54" stroke-width="3" stroke-miterlimit="10" stroke-linecap="round" stroke-linejoin="round"/>
<path d="M37.2 67.0998C34.6 63.2998 30.3 60.7998 25.4 60.7998C18.7 60.7998 13.1 65.3998 11.6 71.5998" stroke="white" stroke-width="3" stroke-miterlimit="10" stroke-linecap="round" stroke-linejoin="round"/>
</svg>
